<svg width="512" height="512" viewBox="0 0 512 512" fill="none" xmlns="http://www.w3.org/2000/svg">
<g clip-path="url(#clip0)">
<path d="M512 162.091C511.061 156.459 510.293 152.064 504.32 148.416C260.075 3.54133 263.531 -7.25334 247.68 2.32533C62.5707 117.397 11.0507 143.061 3.64802 152.021C-3.07198 158.912 1.90149e-05 169.472 1.90149e-05 329.045C-0.447981 347.2 165.184 445.568 245.739 508.331C252.843 513.387 261.781 512.576 267.136 507.712C506.581 337.984 512.405 344.811 512 329.045C512 329.045 511.744 159.936 512 162.091ZM480 300.565L397.312 250.24L480 192.704V300.565ZM367.424 232.043L272 173.973V44.48L466.688 162.987L367.424 232.043ZM256 309.547L173.312 252.011L256 201.685L338.688 252.011L256 309.547ZM240 44.4587V174.037C202.901 197.056 171.541 216.277 145.045 232.363L45.312 162.987L240 44.4587ZM115.051 250.496C75.072 274.539 48.96 289.813 32 299.989V192.704L115.051 250.496ZM143.424 270.208L240 337.387V465.365L45.312 329.92L143.424 270.208ZM272 465.387V337.408L368.576 270.229L466.688 329.941L272 465.387Z" fill="#000"/>
</g>
<defs>
<clipPath id="clip0">
<rect width="512" height="512" fill="#000"/>
</clipPath>
</defs>
</svg>
