<svg width="90" height="63" viewBox="0 0 90 63" fill="none" xmlns="http://www.w3.org/2000/svg">
<path d="M4.00024 0.5H86.0002C87.9332 0.5 89.5002 2.067 89.5002 4V59C89.5002 60.933 87.9332 62.5 86.0002 62.5H4.00024C2.06725 62.5 0.500244 60.933 0.500244 59V4C0.500244 2.067 2.06725 0.5 4.00024 0.5Z" fill="white" stroke="#346DDB"/>
<rect x="73.0002" y="11" width="13" height="1" rx="0.5" fill="#E3E8ED"/>
<rect x="73.0002" y="26" width="13" height="1" rx="0.5" fill="#E3E8ED"/>
<rect x="73.0002" y="15" width="13" height="1" rx="0.5" fill="#E3E8ED"/>
<rect x="73.0002" y="30" width="13" height="1" rx="0.5" fill="#E3E8ED"/>
<rect x="73.0002" y="19" width="13" height="1" rx="0.5" fill="#E3E8ED"/>
<rect x="73.0002" y="34" width="13" height="1" rx="0.5" fill="#E3E8ED"/>
<path d="M54.5966 12H28.4039C28.0316 12 27.6746 11.8946 27.4114 11.7071C27.1481 11.5196 27.0002 11.2652 27.0002 11C27.0002 10.7348 27.1481 10.4804 27.4114 10.2929C27.6746 10.1054 28.0316 10 28.4039 10H54.5966C54.9688 10 55.3259 10.1054 55.5891 10.2929C55.8524 10.4804 56.0002 10.7348 56.0002 11C56.0002 11.2652 55.8524 11.5196 55.5891 11.7071C55.3259 11.8946 54.9688 12 54.5966 12Z" fill="#1351AA"/>
<path d="M41.6142 53H17.3863C17.0187 53 16.6661 52.8946 16.4062 52.7071C16.1463 52.5196 16.0002 52.2652 16.0002 52C16.0002 51.7348 16.1463 51.4804 16.4062 51.2929C16.6661 51.1054 17.0187 51 17.3863 51H41.6142C41.9818 51 42.3344 51.1054 42.5943 51.2929C42.8542 51.4804 43.0002 51.7348 43.0002 52C43.0002 52.2652 42.8542 52.5196 42.5943 52.7071C42.3344 52.8946 41.9818 53 41.6142 53Z" fill="#1351AA"/>
<g opacity="0.3">
<path d="M53.6002 20H28.4002C28.0289 20 27.6728 19.8946 27.4103 19.7071C27.1477 19.5196 27.0002 19.2652 27.0002 19C27.0002 18.7348 27.1477 18.4804 27.4103 18.2929C27.6728 18.1054 28.0289 18 28.4002 18H53.6002C53.9715 18 54.3276 18.1054 54.5902 18.2929C54.8527 18.4804 55.0002 18.7348 55.0002 19C55.0002 19.2652 54.8527 19.5196 54.5902 19.7071C54.3276 19.8946 53.9715 20 53.6002 20Z" fill="#D3DCE4"/>
<path d="M53.5948 27H16.4057C16.033 27 15.6755 26.8946 15.4119 26.7071C15.1483 26.5196 15.0002 26.2652 15.0002 26C15.0002 25.7348 15.1483 25.4804 15.4119 25.2929C15.6755 25.1054 16.033 25 16.4057 25H53.5948C53.9675 25 54.325 25.1054 54.5886 25.2929C54.8522 25.4804 55.0002 25.7348 55.0002 26C55.0002 26.2652 54.8522 26.5196 54.5886 26.7071C54.325 26.8946 53.9675 27 53.5948 27Z" fill="#D3DCE4"/>
<path d="M53.5948 33H16.4057C16.033 33 15.6755 32.8946 15.4119 32.7071C15.1483 32.5196 15.0002 32.2652 15.0002 32C15.0002 31.7348 15.1483 31.4804 15.4119 31.2929C15.6755 31.1054 16.033 31 16.4057 31H53.5948C53.9675 31 54.325 31.1054 54.5886 31.2929C54.8522 31.4804 55.0002 31.7348 55.0002 32C55.0002 32.2652 54.8522 32.5196 54.5886 32.7071C54.325 32.8946 53.9675 33 53.5948 33Z" fill="#D3DCE4"/>
<path d="M53.5948 39H16.4057C16.033 39 15.6755 38.8946 15.4119 38.7071C15.1483 38.5196 15.0002 38.2652 15.0002 38C15.0002 37.7348 15.1483 37.4804 15.4119 37.2929C15.6755 37.1054 16.033 37 16.4057 37H53.5948C53.9675 37 54.325 37.1054 54.5886 37.2929C54.8522 37.4804 55.0002 37.7348 55.0002 38C55.0002 38.2652 54.8522 38.5196 54.5886 38.7071C54.325 38.8946 53.9675 39 53.5948 39Z" fill="#D3DCE4"/>
<path d="M40.5694 46H16.4311C16.0516 46 15.6877 45.8946 15.4193 45.7071C15.151 45.5196 15.0002 45.2652 15.0002 45C15.0002 44.7348 15.151 44.4804 15.4193 44.2929C15.6877 44.1054 16.0516 44 16.4311 44H40.5694C40.9489 44 41.3128 44.1054 41.5812 44.2929C41.8495 44.4804 42.0002 44.7348 42.0002 45C42.0002 45.2652 41.8495 45.5196 41.5812 45.7071C41.3128 45.8946 40.9489 46 40.5694 46Z" fill="#D3DCE4"/>
</g>
<rect x="69.0002" y="1" width="1" height="61" fill="#346DDB"/>
</svg>
