<svg width="512" height="512" viewBox="0 0 512 512" xmlns="http://www.w3.org/2000/svg"><g fill="none" fill-rule="nonzero"><path d="M441.412 140.235v338.781c0 18.219-14.778 32.983-32.983 32.983H103.572c-18.219 0-32.983-14.764-32.983-32.983V32.983C70.589 14.764 85.352 0 103.572 0h197.605l140.235 140.235z" fill="#518EF8"/><g fill="#FFF"><path d="M161.18 257.054h189.626v21.071H161.18zM161.18 304.112h189.626v21.071H161.18zM161.18 351.171h189.626v21.071H161.18zM161.18 398.23h134.855v21.071H161.18z"/></g><path fill="#3A5BBC" d="M320.31 137.188l121.102 49.891v-46.844l-68.661-20.273z"/><path d="M441.412 140.235H334.16c-18.22 0-32.983-14.764-32.983-32.983V0l140.235 140.235z" fill="#ACD1FC"/></g></svg>
