<svg width="1570" height="1570" viewBox="0 0 1570 1570" fill="none" xmlns="http://www.w3.org/2000/svg">
<g clip-path="url(#clip0)">
<path d="M918 86H352.764C299.53 86 253 132.548 253 185.802V1383.25C253 1436.45 299.53 1483.06 352.764 1483.06H1217.24C1270.41 1483.06 1317 1436.51 1317 1383.25V485.151L1084.24 318.852L918 86Z" fill="#673AB7"/>
<path d="M652 1117.1H1051V1050.6H652V1117.1ZM652 684.698V751.196H1051V684.698H652ZM592.119 718.003C592.119 744.602 572.177 771.201 538.941 771.201C505.705 771.201 485.764 751.251 485.764 718.003C485.764 684.754 505.705 664.805 538.941 664.805C572.177 664.805 592.119 691.348 592.119 718.003ZM592.119 904.251C592.119 930.85 572.177 957.449 538.941 957.449C505.705 957.449 485.764 937.499 485.764 904.251C485.764 871.002 505.705 851.053 538.941 851.053C572.177 851.053 592.119 877.652 592.119 904.251ZM592.119 1083.85C592.119 1110.45 572.177 1137.05 538.941 1137.05C505.705 1137.05 485.764 1117.1 485.764 1083.85C485.764 1050.6 505.705 1030.65 538.941 1030.65C572.177 1030.65 592.119 1057.25 592.119 1083.85ZM652 950.799H1051V884.246H652V950.799Z" fill="#F1F1F1"/>
<path d="M944.589 458.552L1317 824.454V485.151L944.589 458.552Z" fill="url(#paint0_linear)"/>
<path d="M918 86V385.349C918 438.547 964.53 485.151 1017.76 485.151H1317L918 86Z" fill="#B39DDB"/>
<path d="M352.764 86C299.53 86 253 132.548 253 185.802V192.451C253 139.198 299.53 92.6497 352.764 92.6497H918V86H352.764Z" fill="white" fill-opacity="0.2"/>
<path d="M1217.24 1476.35H352.764C299.53 1476.35 253 1429.8 253 1376.55V1383.2C253 1436.4 299.53 1483 352.764 1483H1217.24C1270.41 1483 1317 1436.45 1317 1383.2V1376.55C1317 1429.8 1270.41 1476.35 1217.24 1476.35Z" fill="#311B92" fill-opacity="0.2"/>
<path d="M1017.71 485.151C964.531 485.151 917.944 438.603 917.944 385.349V391.999C917.944 445.197 964.475 491.8 1017.71 491.8H1316.94V485.151H1017.71Z" fill="#311B92" fill-opacity="0.1"/>
<path d="M918 86H352.764C299.53 86 253 132.548 253 185.802V1383.25C253 1436.45 299.53 1483.06 352.764 1483.06H1217.24C1270.41 1483.06 1317 1436.51 1317 1383.25V485.151L918 86Z" fill="url(#paint1_radial)"/>
</g>
<defs>
<linearGradient id="paint0_linear" x1="1130.77" y1="487.673" x2="1130.77" y2="825.853" gradientUnits="userSpaceOnUse">
<stop stop-color="#311B92" stop-opacity="0.2"/>
<stop offset="1" stop-color="#311B92" stop-opacity="0.02"/>
</linearGradient>
<radialGradient id="paint1_radial" cx="0" cy="0" r="1" gradientUnits="userSpaceOnUse" gradientTransform="translate(286.661 123.283) scale(13724.3 13729.4)">
<stop stop-color="white" stop-opacity="0.1"/>
<stop offset="1" stop-color="white" stop-opacity="0"/>
</radialGradient>
<clipPath id="clip0">
<rect width="1064" height="1397" fill="white" transform="translate(253 86)"/>
</clipPath>
</defs>
</svg>
