<svg width="90" height="63" viewBox="0 0 90 63" fill="none" xmlns="http://www.w3.org/2000/svg">
<path d="M4 0.5H86C87.933 0.5 89.5 2.067 89.5 4V59C89.5 60.933 87.933 62.5 86 62.5H4C2.067 62.5 0.5 60.933 0.5 59V4C0.5 2.067 2.067 0.5 4 0.5Z" fill="white" stroke="#346DDB"/>
<path d="M59.68 12.46H41.02C40.7548 12.46 40.5004 12.3546 40.3129 12.1671C40.1254 11.9795 40.02 11.7252 40.02 11.46C40.02 11.1947 40.1254 10.9404 40.3129 10.7529C40.5004 10.5653 40.7548 10.46 41.02 10.46H59.68C59.9452 10.46 60.1996 10.5653 60.3871 10.7529C60.5747 10.9404 60.68 11.1947 60.68 11.46C60.68 11.7252 60.5747 11.9795 60.3871 12.1671C60.1996 12.3546 59.9452 12.46 59.68 12.46Z" fill="#1351AA"/>
<path d="M50.8799 53.02H33.3999C33.1347 53.02 32.8803 52.9147 32.6928 52.7271C32.5053 52.5396 32.3999 52.2852 32.3999 52.02C32.3999 51.7548 32.5053 51.5005 32.6928 51.3129C32.8803 51.1254 33.1347 51.02 33.3999 51.02H50.8799C51.1451 51.02 51.3995 51.1254 51.587 51.3129C51.7745 51.5005 51.8799 51.7548 51.8799 52.02C51.8799 52.2852 51.7745 52.5396 51.587 52.7271C51.3995 52.9147 51.1451 53.02 50.8799 53.02Z" fill="#1351AA"/>
<g opacity="0.3">
<path d="M59.27 20.24H41.27C41.0048 20.24 40.7504 20.1346 40.5629 19.9471C40.3754 19.7596 40.27 19.5052 40.27 19.24C40.27 18.9748 40.3754 18.7204 40.5629 18.5329C40.7504 18.3453 41.0048 18.24 41.27 18.24H59.27C59.5352 18.24 59.7896 18.3453 59.9771 18.5329C60.1647 18.7204 60.27 18.9748 60.27 19.24C60.27 19.5052 60.1647 19.7596 59.9771 19.9471C59.7896 20.1346 59.5352 20.24 59.27 20.24Z" fill="#D3DCE4"/>
<path d="M59.2701 26.58H32.8101C32.5448 26.58 32.2905 26.4747 32.103 26.2871C31.9154 26.0996 31.8101 25.8452 31.8101 25.58C31.8101 25.3148 31.9154 25.0604 32.103 24.8729C32.2905 24.6854 32.5448 24.58 32.8101 24.58H59.2701C59.5353 24.58 59.7896 24.6854 59.9772 24.8729C60.1647 25.0604 60.2701 25.3148 60.2701 25.58C60.2701 25.8452 60.1647 26.0996 59.9772 26.2871C59.7896 26.4747 59.5353 26.58 59.2701 26.58Z" fill="#D3DCE4"/>
<path d="M59.2701 32.91H32.8101C32.5448 32.91 32.2905 32.8046 32.103 32.6171C31.9154 32.4295 31.8101 32.1752 31.8101 31.91C31.8101 31.6448 31.9154 31.3904 32.103 31.2029C32.2905 31.0153 32.5448 30.91 32.8101 30.91H59.2701C59.5353 30.91 59.7896 31.0153 59.9772 31.2029C60.1647 31.3904 60.2701 31.6448 60.2701 31.91C60.2701 32.1752 60.1647 32.4295 59.9772 32.6171C59.7896 32.8046 59.5353 32.91 59.2701 32.91Z" fill="#D3DCE4"/>
<path d="M59.2701 39.24H32.8101C32.5448 39.24 32.2905 39.1346 32.103 38.9471C31.9154 38.7596 31.8101 38.5052 31.8101 38.24C31.8101 37.9748 31.9154 37.7204 32.103 37.5329C32.2905 37.3453 32.5448 37.24 32.8101 37.24H59.2701C59.5353 37.24 59.7896 37.3453 59.9772 37.5329C60.1647 37.7204 60.2701 37.9748 60.2701 38.24C60.2701 38.5052 60.1647 38.7596 59.9772 38.9471C59.7896 39.1346 59.5353 39.24 59.2701 39.24Z" fill="#D3DCE4"/>
<path d="M49.6801 45.56H32.8101C32.5448 45.56 32.2905 45.4546 32.103 45.2671C31.9154 45.0796 31.8101 44.8252 31.8101 44.56C31.8101 44.2948 31.9154 44.0404 32.103 43.8529C32.2905 43.6654 32.5448 43.56 32.8101 43.56H49.6801C49.9453 43.56 50.1996 43.6654 50.3872 43.8529C50.5747 44.0404 50.6801 44.2948 50.6801 44.56C50.6801 44.8252 50.5747 45.0796 50.3872 45.2671C50.1996 45.4546 49.9453 45.56 49.6801 45.56Z" fill="#D3DCE4"/>
</g>
</svg>
