<svg width="196" height="196" viewBox="0 0 196 196" fill="none" xmlns="http://www.w3.org/2000/svg"><path d="M195.66 85.9411H141.65L188.527 58.766L176.638 38.3847L129.761 65.5598L156.936 18.6828L136.555 6.79376L109.38 53.6707V0H85.9411V54.0104L58.766 7.13345L38.3847 19.0225L65.5598 65.8995L18.6828 38.7244L6.79376 59.1057L53.6707 86.2808H0V109.719H54.0104L7.13345 136.894L19.0225 157.276L65.8995 130.101L38.7244 176.977L59.1057 188.867L86.2808 141.99V196H109.719V141.65L136.894 188.527L157.276 176.638L130.101 129.761L176.977 156.936L188.867 136.555L141.99 109.38H196V85.9411H195.66ZM97.8302 127.723C81.1854 127.723 67.9376 114.475 67.9376 97.8302C67.9376 81.1854 81.1854 67.9376 97.8302 67.9376C114.475 67.9376 127.723 81.1854 127.723 97.8302C127.723 114.475 114.475 127.723 97.8302 127.723Z" fill="#615cf5"/></svg>
