<svg width="2693" height="2693" viewBox="0 0 2693 2693" fill="none" xmlns="http://www.w3.org/2000/svg">
<path d="M125.311 1333.3C120.094 1333.3 115.954 1337.33 115.28 1343.08L97 1481.94L115.28 1618.4C115.954 1624.15 120.092 1628.16 125.311 1628.16C130.362 1628.16 134.477 1624.18 135.283 1618.45L156.95 1481.94L135.283 1343.06C134.502 1337.33 130.337 1333.3 125.311 1333.3ZM228.113 1257.43C227.252 1251.47 222.978 1247.35 217.709 1247.35C212.412 1247.35 208.029 1251.6 207.304 1257.43C207.304 1257.48 182.732 1481.94 182.732 1481.94L207.304 1701.47C208.004 1707.36 212.387 1711.61 217.709 1711.61C222.95 1711.61 227.226 1707.47 228.085 1701.53L256.042 1481.94L228.113 1257.43ZM615.346 1050.35C605.265 1050.35 596.93 1058.6 596.448 1069.08L576.877 1482.12L596.448 1749.05C596.958 1759.48 605.265 1767.71 615.346 1767.71C625.374 1767.71 633.682 1759.46 634.273 1749V1749.08L656.398 1482.12L634.273 1069.08C633.68 1058.6 625.372 1050.35 615.346 1050.35ZM414.927 1193.9C407.185 1193.9 400.868 1200.09 400.247 1208.34L378.203 1482.02L400.247 1746.79C400.838 1754.99 407.183 1761.18 414.927 1761.18C422.589 1761.18 428.906 1754.99 429.58 1746.79L454.635 1482.02L429.58 1208.28C428.906 1200.09 422.589 1193.9 414.927 1193.9ZM819.019 1767.69C831.52 1767.69 841.681 1757.6 842.192 1744.7L861.389 1482.26L842.219 932.351C841.709 919.446 831.545 909.365 819.047 909.365C806.437 909.365 796.25 919.474 795.844 932.379L778.826 1482.23L795.844 1744.78C796.248 1757.58 806.435 1767.69 819.019 1767.69ZM1235.99 1768.92C1253.19 1768.92 1267.39 1754.76 1267.71 1737.33L1281.1 1482.42L1267.71 847.318C1267.41 829.925 1253.19 815.732 1235.98 815.732C1218.75 815.732 1204.53 829.9 1204.26 847.346L1192.3 1482.21C1192.3 1482.61 1204.26 1737.49 1204.26 1737.49C1204.53 1754.75 1218.78 1768.92 1235.99 1768.92ZM1025.91 1767.93C1040.89 1767.93 1052.96 1755.91 1053.36 1740.59V1740.77L1069.65 1482.31L1053.34 928.428C1052.93 913.103 1040.86 901.115 1025.89 901.115C1010.8 901.115 998.736 913.106 998.412 928.428L983.924 1482.34L998.44 1740.75C998.763 1755.91 1010.83 1767.93 1025.91 1767.93ZM514.747 1765.51C523.645 1765.51 530.852 1758.38 531.524 1749L555.129 1482.02L531.524 1228.05C530.88 1218.67 523.676 1211.59 514.747 1211.59C505.717 1211.59 498.51 1218.72 497.947 1228.16L477.164 1482.02L497.947 1748.98C498.538 1758.38 505.714 1765.51 514.747 1765.51ZM315.916 1750.88C322.421 1750.88 327.69 1745.75 328.442 1738.65L354.949 1481.96L328.468 1215.6C327.687 1208.48 322.418 1203.34 315.914 1203.34C309.326 1203.34 304.057 1208.5 303.385 1215.6L280.051 1481.96L303.385 1738.6C304.032 1745.72 309.301 1750.88 315.916 1750.88ZM1130.55 919.206C1114.28 919.206 1101.24 932.139 1100.92 948.699L1087.7 1482.37L1100.92 1739.16C1101.24 1755.51 1114.26 1768.44 1130.55 1768.44C1146.78 1768.44 1159.75 1755.53 1160.12 1738.97V1739.19L1174.96 1482.4L1160.12 948.643C1159.74 932.139 1146.78 919.206 1130.55 919.206ZM716.805 1768.22C728.043 1768.22 737.318 1759.05 737.856 1747.36L758.503 1482.2L737.856 974.693C737.29 962.97 728.043 953.831 716.805 953.831C705.461 953.831 696.214 962.998 695.729 974.693L677.449 1482.2L695.757 1747.47C696.211 1759.05 705.459 1768.22 716.805 1768.22ZM947.361 1743.19V1743.06L965.103 1482.29L947.361 913.856C946.929 899.744 935.8 888.668 922.061 888.668C908.242 888.668 897.113 899.716 896.739 913.856L880.985 1482.26L896.764 1743.17C897.141 1757.14 908.272 1768.19 922.064 1768.19C935.827 1768.19 946.904 1757.14 947.363 1743.09V1743.19H947.361ZM2289.34 1154.63C2247.21 1154.63 2207.02 1163.15 2170.41 1178.5C2145.94 901.383 1913.56 684 1630.1 684C1560.74 684 1493.13 697.658 1433.42 720.75C1410.22 729.729 1404.03 738.977 1403.82 756.908V1732.79C1404.06 1751.61 1418.66 1767.28 1437.02 1769.13C1437.8 1769.22 2283.83 1769.65 2289.32 1769.65C2459.12 1769.65 2596.79 1631.97 2596.79 1462.15C2596.79 1292.32 2459.14 1154.63 2289.34 1154.63ZM1340.96 756.049C1322.5 756.049 1307.33 771.212 1307.06 789.841L1293.19 1482.5L1307.09 1733.89C1307.33 1752.25 1322.5 1767.39 1340.96 1767.39C1359.38 1767.39 1374.54 1752.25 1374.81 1733.62V1733.92L1389.89 1482.5L1374.81 789.788C1374.54 771.212 1359.38 756.049 1340.96 756.049Z" fill="url(#paint0_linear)"/>
<defs>
<linearGradient id="paint0_linear" x1="1346.78" y1="683.801" x2="1346.78" y2="2108.81" gradientUnits="userSpaceOnUse">
<stop stop-color="#F79810"/>
<stop offset="1" stop-color="#F8310E"/>
</linearGradient>
</defs>
</svg>
