<svg width="257" height="257" viewBox="0 0 257 257" fill="none" xmlns="http://www.w3.org/2000/svg">
<path d="M121.713 0.474354C154.861 -2.2442 178.669 6.51949 204.285 32.021C231.941 59.5534 250.328 95.2329 255.284 133.239C260.797 175.505 253.214 207.046 229.858 230.137C207.525 252.218 174.905 259.501 131.329 255.872L129.525 255.714C92.4177 252.316 66.1718 240.197 40.7416 214.543C13.5784 187.14 -0.735231 156.026 0.0290952 123.37C0.402936 107.383 4.94935 93.7579 13.7173 80.3889C19.4655 71.6244 25.3031 64.7874 37.5141 52.2487L41.5894 48.0907L46.0816 43.5551C75.0209 14.5794 94.0732 2.74118 121.713 0.474354ZM202.315 33.9842C177.276 9.05724 154.272 0.589199 121.942 3.24065C94.6956 5.47519 75.9841 17.332 46.7006 46.8761L44.5822 49.0171C30.3146 63.4649 23.6285 70.8518 17.7387 79.3948L16.8817 80.6541L16.0501 81.907C7.55641 94.8578 3.17611 107.985 2.81484 123.435C2.06947 155.281 16.0604 185.693 42.7244 212.592C68.09 238.182 94.1491 249.992 131.561 253.106L133.417 253.254C175.325 256.465 206.569 249.252 227.895 228.167C250.553 205.765 257.931 175.079 252.52 133.597C247.646 96.2153 229.547 61.0943 202.315 33.9842ZM167.637 93.3903V106.949H138.727V184.662H124.326V106.949H95.4161V93.3903H167.637Z" fill="white"/>
</svg>
